<?xml version="1.0" encoding="UTF-8"?>
<svg id="Layer_2" data-name="Layer 2" xmlns="http://www.w3.org/2000/svg" viewBox="0 0 200 200">
  <defs>
    <style>
      .cls-1 {
        fill: none;
      }

      .cls-2 {
        fill: #5d47ff;
      }
    </style>
  </defs>
  <g id="Layer_1-2" data-name="Layer 1">
    <g>
      <g>
        <rect class="cls-2" x="34.38" y="109.94" width="41.69" height="69.59" rx="20.85" ry="20.85"/>
        <rect class="cls-2" x="123.92" y="20.46" width="41.69" height="69.59" rx="20.85" ry="20.85"/>
        <path class="cls-2" d="M139.77,100h0c-21.96,0-39.77-17.8-39.77-39.77S82.2,20.46,60.23,20.46h0c-21.96,0-39.77,17.8-39.77,39.77h0c0,21.96,17.8,39.77,39.77,39.77h0c21.96,0,39.77,17.8,39.77,39.77h0c0,21.96,17.8,39.77,39.77,39.77h0c21.96,0,39.77-17.8,39.77-39.77h0c0-21.96-17.8-39.77-39.77-39.77Z"/>
      </g>
      <rect class="cls-1" width="200" height="200"/>
    </g>
  </g>
</svg>