<svg width="200" height="200" viewBox="0 0 200 200" fill="none" xmlns="http://www.w3.org/2000/svg">
<g clip-path="url(#clip0_40003352_172)">
<circle cx="100" cy="100" r="100" fill="#F5F7F9"/>
<g clip-path="url(#clip1_40003352_172)">
<path d="M69.6567 106.812H68.9882C61.2835 106.812 55.0375 113.058 55.0375 120.763V140.549C55.0375 148.254 61.2835 154.5 68.9882 154.5H69.6567C77.3615 154.5 83.6074 148.254 83.6074 140.549V120.763C83.6074 113.058 77.3615 106.812 69.6567 106.812Z" fill="#5D47FF"/>
<path d="M131.012 45.5H130.343C122.639 45.5 116.393 51.746 116.393 59.4507V79.2368C116.393 86.9415 122.639 93.1875 130.343 93.1875H131.012C138.717 93.1875 144.963 86.9415 144.963 79.2368V59.4507C144.963 51.746 138.717 45.5 131.012 45.5Z" fill="#5D47FF"/>
<path d="M127.25 100C120.023 100 113.092 97.129 107.981 92.0187C102.871 86.9083 100 79.9771 100 72.75C100 65.5229 97.129 58.5917 92.0187 53.4813C86.9083 48.371 79.9771 45.5 72.75 45.5V45.5C65.5229 45.5 58.5917 48.371 53.4813 53.4813C48.371 58.5917 45.5 65.5229 45.5 72.75V72.75C45.5 79.9771 48.371 86.9083 53.4813 92.0187C58.5917 97.129 65.5229 100 72.75 100C79.9771 100 86.9083 102.871 92.0187 107.981C97.129 113.092 100 120.023 100 127.25C100 134.477 102.871 141.408 107.981 146.519C113.092 151.629 120.023 154.5 127.25 154.5C134.477 154.5 141.408 151.629 146.519 146.519C151.629 141.408 154.5 134.477 154.5 127.25C154.5 120.023 151.629 113.092 146.519 107.981C141.408 102.871 134.477 100 127.25 100V100Z" fill="#5D47FF"/>
</g>
</g>
<defs>
<clipPath id="clip0_40003352_172">
<rect width="200" height="200" fill="white"/>
</clipPath>
<clipPath id="clip1_40003352_172">
<rect width="109" height="109" fill="white" transform="translate(45.5 45.5)"/>
</clipPath>
</defs>
</svg>
